<svg id="visual" viewBox="0 0 900 600" width="900" height="600" xmlns="http://www.w3.org/2000/svg" xmlns:xlink="http://www.w3.org/1999/xlink" version="1.1"><path d="M0 31L21.5 45.3C43 59.7 86 88.3 128.8 88.5C171.7 88.7 214.3 60.3 257.2 60.2C300 60 343 88 385.8 83.2C428.7 78.3 471.3 40.7 514.2 40C557 39.3 600 75.7 642.8 89.3C685.7 103 728.3 94 771.2 84C814 74 857 63 878.5 57.5L900 52L900 0L878.5 0C857 0 814 0 771.2 0C728.3 0 685.7 0 642.8 0C600 0 557 0 514.2 0C471.3 0 428.7 0 385.8 0C343 0 300 0 257.2 0C214.3 0 171.7 0 128.8 0C86 0 43 0 21.5 0L0 0Z" fill="#FF9822" stroke-linecap="round" stroke-linejoin="miter"></path></svg>